<?xml version="1.0" encoding="utf-8"?>
<!-- Generator: Adobe Illustrator 25.4.1, SVG Export Plug-In . SVG Version: 6.00 Build 0)  -->
<svg version="1.1" id="Capa_1" xmlns="http://www.w3.org/2000/svg" xmlns:xlink="http://www.w3.org/1999/xlink" x="0px" y="0px"
	 viewBox="0 0 200 200" style="enable-background:new 0 0 200 200;" xml:space="preserve">
<style type="text/css">
	.st0{fill:#5B6164;}
</style>
<path class="st0" d="M160.2,100c0,3.5-2.8,6.2-6.2,6.2H61.2l33.5,33.5c2.4,2.4,2.4,6.4,0,8.8c-1.2,1.2-2.8,1.8-4.4,1.8
	s-3.2-0.6-4.4-1.8l-44.2-44.2c-2.4-2.4-2.4-6.4,0-8.8l44.2-44.2c2.4-2.4,6.4-2.4,8.8,0c2.4,2.4,2.4,6.4,0,8.8L61.2,93.8h92.7
	C157.4,93.8,160.2,96.5,160.2,100z"/>
</svg>
